<svg width="207" height="42" viewBox="0 0 207 42" fill="none" xmlns="http://www.w3.org/2000/svg">
<path d="M17.1445 29.3135C17.1445 30.3662 16.8643 31.1318 16.3037 31.6104C15.7568 32.0889 14.916 32.3281 13.7812 32.3281C12.6328 32.3281 11.7852 32.0889 11.2383 31.6104C10.6914 31.1318 10.418 30.3662 10.418 29.3135V4.78613C10.418 4.03418 9.89844 3.6582 8.85938 3.6582C8.10742 3.6582 7.3418 3.77441 6.5625 4.00684C5.79688 4.22559 5.09961 4.5332 4.4707 4.92969C3.85547 5.3125 3.34961 5.77734 2.95312 6.32422C2.55664 6.85742 2.3584 7.43848 2.3584 8.06738C2.3584 8.50488 2.41309 8.85352 2.52246 9.11328C2.64551 9.37305 2.78223 9.57129 2.93262 9.70801C3.08301 9.83105 3.2334 9.91309 3.38379 9.9541C3.54785 9.98145 3.66406 9.99512 3.73242 9.99512C4.07422 9.99512 4.35449 9.94043 4.57324 9.83105C4.79199 9.70801 4.99023 9.58496 5.16797 9.46191C5.3457 9.3252 5.50977 9.20215 5.66016 9.09277C5.82422 8.96973 6.00879 8.9082 6.21387 8.9082C6.37793 8.9082 6.54883 8.94922 6.72656 9.03125C6.91797 9.09961 7.08887 9.21582 7.23926 9.37988C7.40332 9.54395 7.54004 9.7627 7.64941 10.0361C7.75879 10.2959 7.81348 10.6172 7.81348 11C7.81348 11.5469 7.7041 12.0186 7.48535 12.415C7.28027 12.8115 7.00684 13.1465 6.66504 13.4199C6.33691 13.6797 5.9541 13.8779 5.5166 14.0146C5.09277 14.1377 4.66895 14.1992 4.24512 14.1992C3.58887 14.1992 2.99414 14.0898 2.46094 13.8711C1.94141 13.6387 1.49707 13.3242 1.12793 12.9277C0.758789 12.5312 0.478516 12.0664 0.287109 11.5332C0.0957031 11 0 10.4326 0 9.83105C0 8.69629 0.211914 7.69824 0.635742 6.83691C1.05957 5.96191 1.6543 5.20996 2.41992 4.58105C3.19922 3.95215 4.12891 3.43262 5.20898 3.02246C6.28906 2.59863 7.48535 2.26367 8.79785 2.01758C10.1104 1.77148 11.5117 1.60059 13.002 1.50488C14.5059 1.39551 16.0645 1.34082 17.6777 1.34082C21.5879 1.34082 24.5479 2.09277 26.5576 3.59668C28.5674 5.08691 29.5723 7.2334 29.5723 10.0361C29.5723 11.4033 29.3877 12.6133 29.0186 13.666C28.6631 14.7188 28.1777 15.6279 27.5625 16.3936C26.9609 17.1455 26.2637 17.7607 25.4707 18.2393C24.6777 18.7041 23.8574 19.0391 23.0098 19.2441C22.1621 19.4492 21.3076 19.5312 20.4463 19.4902C19.5986 19.4492 18.8057 19.292 18.0674 19.0186L18.3545 18.1367C19.3799 18.4512 20.2207 18.4648 20.877 18.1777C21.5469 17.877 22.0664 17.3506 22.4355 16.5986C22.8184 15.8467 23.0781 14.8965 23.2148 13.748C23.3652 12.5996 23.4404 11.335 23.4404 9.9541C23.4404 8.91504 23.3311 7.97168 23.1123 7.12402C22.8936 6.2627 22.5928 5.53125 22.21 4.92969C21.8408 4.32812 21.4033 3.86328 20.8975 3.53516C20.4053 3.19336 19.8789 3.02246 19.3184 3.02246C18.8809 3.02246 18.5186 3.09082 18.2314 3.22754C17.958 3.35059 17.7393 3.51465 17.5752 3.71973C17.4248 3.91113 17.3154 4.12305 17.2471 4.35547C17.1924 4.57422 17.1582 4.78613 17.1445 4.99121V29.3135Z" fill="#7C7FCA"/>
<path d="M38.8828 14.6094C39.3887 13.8848 39.9629 13.2354 40.6055 12.6611C40.8652 12.415 41.1523 12.1758 41.4668 11.9434C41.7949 11.7109 42.1367 11.5059 42.4922 11.3281C42.8613 11.1367 43.2441 10.9863 43.6406 10.877C44.0508 10.7676 44.4678 10.7129 44.8916 10.7129C45.8076 10.7129 46.6279 10.8906 47.3525 11.2461C48.0771 11.6016 48.6855 12.1963 49.1777 13.0303C49.6699 13.8643 50.0459 14.9717 50.3057 16.3525C50.5654 17.7197 50.6953 19.4219 50.6953 21.459C50.6953 23.4414 50.5176 25.1641 50.1621 26.627C49.8066 28.0898 49.3418 29.334 48.7676 30.3594C48.1934 31.3848 47.5439 32.2188 46.8193 32.8613C46.0947 33.5176 45.3633 34.0303 44.625 34.3994C43.8867 34.7686 43.1758 35.0215 42.4922 35.1582C41.8086 35.3086 41.2207 35.3906 40.7285 35.4043L40.5234 34.5635C41.1387 34.4131 41.6855 34.1328 42.1641 33.7227C42.6426 33.3125 43.0459 32.6426 43.374 31.7129C43.7021 30.7695 43.9482 29.5049 44.1123 27.9189C44.29 26.333 44.3789 24.2891 44.3789 21.7871C44.3789 20.0645 44.2969 18.6904 44.1328 17.665C43.9824 16.626 43.7773 15.8398 43.5176 15.3066C43.2715 14.7598 42.9844 14.4043 42.6562 14.2402C42.3418 14.0625 42.0205 13.9736 41.6924 13.9736C41.2959 13.9736 40.9473 14.083 40.6465 14.3018C40.3457 14.5068 40.0791 14.7461 39.8467 15.0195C39.6279 15.293 39.4365 15.5664 39.2725 15.8398C39.1221 16.1133 38.9922 16.3184 38.8828 16.4551V30.1543C38.8828 30.332 38.8555 30.5508 38.8008 30.8105C38.7461 31.0566 38.6094 31.2959 38.3906 31.5283C38.1855 31.7471 37.8711 31.9316 37.4473 32.082C37.0371 32.2461 36.4697 32.3281 35.7451 32.3281C35.0205 32.3281 34.4463 32.2393 34.0225 32.0615C33.5986 31.8975 33.2773 31.6992 33.0586 31.4668C32.8535 31.2344 32.7236 30.9951 32.6689 30.749C32.6143 30.5029 32.5869 30.3047 32.5869 30.1543V3.69922C32.5869 3.30273 32.4912 2.96094 32.2998 2.67383C32.1221 2.37305 31.8145 2.22266 31.377 2.22266C31.1445 2.22266 30.9395 2.26367 30.7617 2.3457C30.5977 2.41406 30.4199 2.52344 30.2285 2.67383L29.8184 2.18164C30.1328 1.92188 30.4814 1.66895 30.8643 1.42285C31.2471 1.16309 31.6641 0.9375 32.1152 0.746094C32.5801 0.554688 33.0723 0.397461 33.5918 0.274414C34.1113 0.151367 34.6582 0.0898438 35.2324 0.0898438C36.1211 0.0898438 36.8115 0.212891 37.3037 0.458984C37.7959 0.691406 38.1582 0.985352 38.3906 1.34082C38.623 1.68262 38.7598 2.05176 38.8008 2.44824C38.8555 2.83105 38.8828 3.17285 38.8828 3.47363V14.6094Z" fill="#7C7FCA"/>
<path d="M71.2852 13.9326C71.2852 16.4346 71.0391 18.8545 70.5469 21.1924C70.0684 23.5166 69.3984 25.7041 68.5371 27.7549C67.6895 29.792 66.6777 31.6514 65.502 33.333C64.3262 35.0283 63.0479 36.4775 61.667 37.6807C60.2861 38.8838 58.8232 39.8203 57.2783 40.4902C55.7471 41.1602 54.1953 41.4951 52.623 41.4951C51.4199 41.4951 50.4902 41.29 49.834 40.8799C49.1777 40.4834 48.8496 39.9434 48.8496 39.2598C48.8496 39 48.8906 38.7471 48.9727 38.501C49.0547 38.2549 49.1641 38.0361 49.3008 37.8447C49.4375 37.6533 49.6016 37.4961 49.793 37.373C49.9844 37.2637 50.1895 37.209 50.4082 37.209C50.668 37.209 50.8867 37.3389 51.0645 37.5986C51.2285 37.8584 51.4062 38.1387 51.5977 38.4395C51.7891 38.7539 52.0215 39.041 52.2949 39.3008C52.5684 39.5605 52.9443 39.6904 53.4229 39.6904C54.0381 39.6904 54.6807 39.5811 55.3506 39.3623C56.0205 39.1572 56.6904 38.8564 57.3604 38.46C58.0439 38.0635 58.7207 37.5781 59.3906 37.0039C60.0742 36.4434 60.7441 35.8145 61.4004 35.1172C61.0176 33.7363 60.5732 32.2324 60.0674 30.6055C59.5752 28.9648 59.0488 27.3174 58.4883 25.6631C57.9414 24.0088 57.374 22.416 56.7861 20.8848C56.2119 19.3398 55.6445 17.9727 55.084 16.7832C54.5371 15.5938 54.0039 14.6436 53.4844 13.9326C52.9785 13.208 52.5273 12.8457 52.1309 12.8457C51.8711 12.8457 51.6729 12.8867 51.5361 12.9688C51.3857 13.0508 51.2148 13.167 51.0234 13.3174L50.6133 12.8047C50.8867 12.5723 51.1738 12.333 51.4746 12.0869C51.7754 11.8408 52.1309 11.6152 52.541 11.4102C52.9512 11.2051 53.4297 11.041 53.9766 10.918C54.5234 10.7812 55.1797 10.7129 55.9453 10.7129C56.7793 10.7129 57.5518 10.9043 58.2627 11.2871C58.9873 11.6562 59.6436 12.3467 60.2314 13.3584C60.6553 14.1104 61.0928 15.0127 61.5439 16.0654C62.0088 17.1182 62.4736 18.2939 62.9385 19.5928C63.4033 20.8916 63.8682 22.2998 64.333 23.8174C64.8115 25.3213 65.29 26.9004 65.7686 28.5547C66.6162 26.7773 67.2998 24.8975 67.8193 22.915C68.3389 20.9189 68.5986 18.8682 68.5986 16.7627C68.5986 16.0107 68.5508 15.3682 68.4551 14.835C68.3594 14.3018 68.25 13.8506 68.127 13.4814C68.0039 13.0986 67.8945 12.7773 67.7988 12.5176C67.7031 12.2441 67.6553 12.0049 67.6553 11.7998C67.6553 11.5947 67.7373 11.4238 67.9014 11.2871C68.0654 11.1367 68.2637 11.0205 68.4961 10.9385C68.7285 10.8564 68.9609 10.8018 69.1934 10.7744C69.4395 10.7334 69.6445 10.7129 69.8086 10.7129C70.1777 10.7129 70.458 10.7881 70.6494 10.9385C70.8545 11.0889 71.0049 11.3076 71.1006 11.5947C71.1963 11.8682 71.251 12.2031 71.2646 12.5996C71.2783 12.9961 71.2852 13.4404 71.2852 13.9326Z" fill="#7C7FCA"/>
<path d="M89.7012 29.3135C89.7012 30.3662 89.4209 31.1318 88.8604 31.6104C88.3135 32.0889 87.4727 32.3281 86.3379 32.3281C85.1895 32.3281 84.3418 32.0889 83.7949 31.6104C83.248 31.1318 82.9746 30.3662 82.9746 29.3135V4.78613C82.9746 4.03418 82.4551 3.6582 81.416 3.6582C80.6641 3.6582 79.8984 3.77441 79.1191 4.00684C78.3535 4.22559 77.6562 4.5332 77.0273 4.92969C76.4121 5.3125 75.9062 5.77734 75.5098 6.32422C75.1133 6.85742 74.915 7.43848 74.915 8.06738C74.915 8.50488 74.9697 8.85352 75.0791 9.11328C75.2021 9.37305 75.3389 9.57129 75.4893 9.70801C75.6396 9.83105 75.79 9.91309 75.9404 9.9541C76.1045 9.98145 76.2207 9.99512 76.2891 9.99512C76.6309 9.99512 76.9111 9.94043 77.1299 9.83105C77.3486 9.70801 77.5469 9.58496 77.7246 9.46191C77.9023 9.3252 78.0664 9.20215 78.2168 9.09277C78.3809 8.96973 78.5654 8.9082 78.7705 8.9082C78.9346 8.9082 79.1055 8.94922 79.2832 9.03125C79.4746 9.09961 79.6455 9.21582 79.7959 9.37988C79.96 9.54395 80.0967 9.7627 80.2061 10.0361C80.3154 10.2959 80.3701 10.6172 80.3701 11C80.3701 11.5469 80.2607 12.0186 80.042 12.415C79.8369 12.8115 79.5635 13.1465 79.2217 13.4199C78.8936 13.6797 78.5107 13.8779 78.0732 14.0146C77.6494 14.1377 77.2256 14.1992 76.8018 14.1992C76.1455 14.1992 75.5508 14.0898 75.0176 13.8711C74.498 13.6387 74.0537 13.3242 73.6846 12.9277C73.3154 12.5312 73.0352 12.0664 72.8438 11.5332C72.6523 11 72.5566 10.4326 72.5566 9.83105C72.5566 8.69629 72.7686 7.69824 73.1924 6.83691C73.6162 5.96191 74.2109 5.20996 74.9766 4.58105C75.7559 3.95215 76.6855 3.43262 77.7656 3.02246C78.8457 2.59863 80.042 2.26367 81.3545 2.01758C82.667 1.77148 84.0684 1.60059 85.5586 1.50488C87.0625 1.39551 88.6211 1.34082 90.2344 1.34082C94.1445 1.34082 97.1045 2.09277 99.1143 3.59668C101.124 5.08691 102.129 7.2334 102.129 10.0361C102.129 11.4033 101.944 12.6133 101.575 13.666C101.22 14.7188 100.734 15.6279 100.119 16.3936C99.5176 17.1455 98.8203 17.7607 98.0273 18.2393C97.2344 18.7041 96.4141 19.0391 95.5664 19.2441C94.7188 19.4492 93.8643 19.5312 93.0029 19.4902C92.1553 19.4492 91.3623 19.292 90.624 19.0186L90.9111 18.1367C91.9365 18.4512 92.7773 18.4648 93.4336 18.1777C94.1035 17.877 94.623 17.3506 94.9922 16.5986C95.375 15.8467 95.6348 14.8965 95.7715 13.748C95.9219 12.5996 95.9971 11.335 95.9971 9.9541C95.9971 8.91504 95.8877 7.97168 95.6689 7.12402C95.4502 6.2627 95.1494 5.53125 94.7666 4.92969C94.3975 4.32812 93.96 3.86328 93.4541 3.53516C92.9619 3.19336 92.4355 3.02246 91.875 3.02246C91.4375 3.02246 91.0752 3.09082 90.7881 3.22754C90.5146 3.35059 90.2959 3.51465 90.1318 3.71973C89.9814 3.91113 89.8721 4.12305 89.8037 4.35547C89.749 4.57422 89.7148 4.78613 89.7012 4.99121V29.3135Z" fill="#7C7FCA"/>
<path d="M111.645 15.04C112.164 14.2471 112.718 13.5293 113.306 12.8867C113.552 12.6133 113.818 12.3467 114.105 12.0869C114.393 11.8271 114.687 11.5947 114.987 11.3896C115.302 11.1846 115.623 11.0205 115.951 10.8975C116.279 10.7744 116.607 10.7129 116.936 10.7129C117.633 10.7129 118.18 10.9248 118.576 11.3486C118.973 11.7588 119.171 12.3398 119.171 13.0918C119.171 13.5566 119.13 14.0078 119.048 14.4453C118.979 14.8691 118.836 15.3887 118.617 16.0039H118.043C117.961 15.5801 117.77 15.2314 117.469 14.958C117.168 14.6709 116.73 14.5273 116.156 14.5273C115.732 14.5273 115.315 14.6094 114.905 14.7734C114.495 14.9238 114.092 15.1152 113.695 15.3477C113.312 15.5801 112.943 15.833 112.588 16.1064C112.246 16.3799 111.932 16.6396 111.645 16.8857V30.1953C111.645 30.373 111.617 30.585 111.562 30.8311C111.508 31.0771 111.371 31.3096 111.152 31.5283C110.947 31.7471 110.633 31.9316 110.209 32.082C109.799 32.2461 109.231 32.3281 108.507 32.3281C107.782 32.3281 107.208 32.2393 106.784 32.0615C106.374 31.8975 106.06 31.6992 105.841 31.4668C105.622 31.2344 105.485 30.9951 105.431 30.749C105.376 30.5029 105.349 30.3047 105.349 30.1543V14.3223C105.349 13.9258 105.253 13.584 105.062 13.2969C104.884 12.9961 104.576 12.8457 104.139 12.8457C103.906 12.8457 103.708 12.8867 103.544 12.9688C103.38 13.0508 103.202 13.167 103.011 13.3174L102.58 12.8047C102.895 12.5449 103.243 12.292 103.626 12.0459C104.022 11.7861 104.446 11.5605 104.897 11.3691C105.349 11.1777 105.834 11.0205 106.354 10.8975C106.873 10.7744 107.42 10.7129 107.994 10.7129C108.582 10.7129 109.081 10.7949 109.491 10.959C109.915 11.1094 110.257 11.3145 110.517 11.5742C110.79 11.8203 111.002 12.1006 111.152 12.415C111.303 12.7295 111.412 13.0508 111.48 13.3789C111.562 13.6934 111.61 14.001 111.624 14.3018C111.638 14.5889 111.645 14.835 111.645 15.04Z" fill="#7C7FCA"/>
<path d="M120.073 21.5C120.073 19.709 120.333 18.1436 120.853 16.8037C121.372 15.4502 122.062 14.3223 122.924 13.4199C123.799 12.5176 124.811 11.8408 125.959 11.3896C127.107 10.9385 128.311 10.7129 129.568 10.7129C130.826 10.7129 132.029 10.9248 133.178 11.3486C134.326 11.7588 135.331 12.3945 136.192 13.2559C137.067 14.1172 137.765 15.2109 138.284 16.5371C138.804 17.8496 139.063 19.4082 139.063 21.2129C139.063 23.0039 138.804 24.5898 138.284 25.9707C137.765 27.3516 137.067 28.5137 136.192 29.457C135.331 30.4004 134.326 31.1182 133.178 31.6104C132.029 32.0889 130.826 32.3281 129.568 32.3281C128.311 32.3281 127.107 32.1025 125.959 31.6514C124.811 31.1865 123.799 30.5029 122.924 29.6006C122.062 28.6982 121.372 27.5703 120.853 26.2168C120.333 24.8633 120.073 23.291 120.073 21.5ZM132.686 21.2949C132.686 20.2012 132.645 19.1484 132.562 18.1367C132.494 17.1113 132.351 16.2021 132.132 15.4092C131.913 14.6162 131.599 13.9873 131.188 13.5225C130.778 13.0439 130.238 12.8047 129.568 12.8047C128.898 12.8047 128.358 13.0576 127.948 13.5635C127.538 14.0557 127.224 14.7119 127.005 15.5322C126.786 16.3389 126.643 17.2617 126.574 18.3008C126.506 19.3398 126.472 20.4062 126.472 21.5C126.472 22.5938 126.506 23.667 126.574 24.7197C126.643 25.7588 126.786 26.6885 127.005 27.5088C127.224 28.3291 127.538 28.9922 127.948 29.498C128.358 29.9902 128.898 30.2363 129.568 30.2363C130.238 30.2363 130.778 29.9766 131.188 29.457C131.599 28.9375 131.913 28.2539 132.132 27.4062C132.351 26.5586 132.494 25.6016 132.562 24.5352C132.645 23.4688 132.686 22.3887 132.686 21.2949Z" fill="#7C7FCA"/>
<path d="M142.529 6.03711C142.529 5.6543 142.611 5.29199 142.775 4.9502C142.953 4.59473 143.192 4.28711 143.493 4.02734C143.808 3.76758 144.163 3.5625 144.56 3.41211C144.97 3.26172 145.414 3.18652 145.893 3.18652C146.357 3.18652 146.788 3.26172 147.185 3.41211C147.595 3.5625 147.95 3.76758 148.251 4.02734C148.552 4.28711 148.784 4.59473 148.948 4.9502C149.126 5.29199 149.215 5.6543 149.215 6.03711C149.215 6.43359 149.126 6.80273 148.948 7.14453C148.784 7.48633 148.552 7.78711 148.251 8.04688C147.95 8.29297 147.595 8.49121 147.185 8.6416C146.788 8.79199 146.357 8.86719 145.893 8.86719C145.414 8.86719 144.97 8.79199 144.56 8.6416C144.163 8.49121 143.808 8.29297 143.493 8.04688C143.192 7.78711 142.953 7.48633 142.775 7.14453C142.611 6.80273 142.529 6.43359 142.529 6.03711ZM143.165 14.3223C143.165 13.9258 143.069 13.584 142.878 13.2969C142.7 12.9961 142.393 12.8457 141.955 12.8457C141.723 12.8457 141.524 12.8867 141.36 12.9688C141.196 13.0508 141.019 13.167 140.827 13.3174L140.396 12.8047C140.711 12.5449 141.06 12.292 141.442 12.0459C141.839 11.7861 142.263 11.5605 142.714 11.3691C143.165 11.1777 143.65 11.0205 144.17 10.8975C144.689 10.7744 145.236 10.7129 145.811 10.7129C146.699 10.7129 147.39 10.8359 147.882 11.082C148.374 11.3145 148.736 11.6084 148.969 11.9639C149.201 12.3057 149.338 12.6748 149.379 13.0713C149.434 13.4678 149.461 13.8164 149.461 14.1172V28.6367C149.461 30.4961 149.215 32.2119 148.723 33.7842C148.244 35.3564 147.513 36.71 146.528 37.8447C145.544 38.9932 144.313 39.8887 142.837 40.5312C141.36 41.1738 139.638 41.4951 137.669 41.4951C136.972 41.4951 136.302 41.4336 135.659 41.3105C135.017 41.2012 134.449 41.0439 133.957 40.8389C133.465 40.6338 133.075 40.3877 132.788 40.1006C132.487 39.8271 132.337 39.5195 132.337 39.1777C132.337 38.9316 132.378 38.6787 132.46 38.4189C132.528 38.1729 132.631 37.9473 132.768 37.7422C132.904 37.5371 133.075 37.3662 133.28 37.2295C133.472 37.1064 133.69 37.0449 133.937 37.0449C134.087 37.0449 134.224 37.1201 134.347 37.2705C134.456 37.4209 134.572 37.6055 134.695 37.8242C134.818 38.043 134.962 38.2822 135.126 38.542C135.276 38.8154 135.475 39.0615 135.721 39.2803C135.967 39.499 136.274 39.6836 136.644 39.834C136.999 39.9844 137.437 40.0596 137.956 40.0596C138.653 40.0596 139.269 39.916 139.802 39.6289C140.335 39.3555 140.793 38.9727 141.176 38.4805C141.559 37.9883 141.88 37.4072 142.14 36.7373C142.399 36.0674 142.604 35.3496 142.755 34.584C142.905 33.8184 143.008 33.0186 143.062 32.1846C143.131 31.3506 143.165 30.5166 143.165 29.6826V14.3223Z" fill="#7C7FCA"/>
<path d="M159.94 22.5869C159.94 23.0244 160.002 23.5029 160.125 24.0225C160.262 24.5283 160.453 25.041 160.699 25.5605C160.945 26.0801 161.246 26.5791 161.602 27.0576C161.971 27.5225 162.388 27.9395 162.853 28.3086C163.331 28.6777 163.857 28.9717 164.432 29.1904C165.006 29.4092 165.635 29.5186 166.318 29.5186C166.797 29.5186 167.241 29.4639 167.651 29.3545C168.062 29.2451 168.444 29.0947 168.8 28.9033C169.155 28.7119 169.497 28.4932 169.825 28.2471C170.153 27.9873 170.481 27.7139 170.81 27.4268L171.322 27.9189C171.008 28.3428 170.604 28.8076 170.112 29.3135C169.62 29.8193 169.025 30.2979 168.328 30.749C167.631 31.1865 166.817 31.5557 165.888 31.8564C164.958 32.1436 163.898 32.2871 162.709 32.2871C161.52 32.2871 160.357 32.0752 159.223 31.6514C158.102 31.2139 157.104 30.5645 156.229 29.7031C155.354 28.8418 154.649 27.7686 154.116 26.4834C153.597 25.1982 153.337 23.6943 153.337 21.9717C153.337 20.7275 153.494 19.5859 153.809 18.5469C154.123 17.5078 154.547 16.5713 155.08 15.7373C155.627 14.9033 156.256 14.1719 156.967 13.543C157.691 12.9141 158.45 12.3945 159.243 11.9844C160.036 11.5605 160.843 11.2461 161.663 11.041C162.497 10.8223 163.297 10.7129 164.062 10.7129C165.074 10.7129 165.956 10.8223 166.708 11.041C167.46 11.2598 168.082 11.5537 168.574 11.9229C169.08 12.292 169.456 12.7227 169.702 13.2148C169.948 13.6934 170.071 14.1992 170.071 14.7324C170.071 15.375 169.887 15.9561 169.518 16.4756C169.148 16.9814 168.656 17.4258 168.041 17.8086L159.94 22.5869ZM164.062 18.4238C164.24 18.3145 164.384 18.2119 164.493 18.1162C164.616 18.0068 164.712 17.8838 164.78 17.7471C164.849 17.5967 164.896 17.4189 164.924 17.2139C164.965 16.9951 164.985 16.7285 164.985 16.4141C164.985 16.0723 164.944 15.6963 164.862 15.2861C164.794 14.8623 164.671 14.4658 164.493 14.0967C164.315 13.7275 164.09 13.4199 163.816 13.1738C163.543 12.9277 163.215 12.8047 162.832 12.8047C162.34 12.8047 161.916 12.9551 161.561 13.2559C161.219 13.543 160.932 13.9189 160.699 14.3838C160.48 14.8486 160.303 15.3818 160.166 15.9834C160.043 16.5713 159.947 17.166 159.879 17.7676C159.811 18.3691 159.77 18.9502 159.756 19.5107C159.742 20.0576 159.735 20.5225 159.735 20.9053L164.062 18.4238Z" fill="#7C7FCA"/>
<path d="M186.703 17.8086C186.279 17.8086 185.924 17.7471 185.637 17.624C185.35 17.4873 185.117 17.3096 184.939 17.0908C184.762 16.8721 184.632 16.6328 184.55 16.373C184.468 16.0996 184.427 15.8193 184.427 15.5322C184.427 15.1631 184.447 14.8076 184.488 14.4658C184.543 14.124 184.55 13.8164 184.509 13.543C184.481 13.2695 184.379 13.0508 184.201 12.8867C184.023 12.7227 183.709 12.6406 183.258 12.6406C182.779 12.6406 182.273 12.7773 181.74 13.0508C181.207 13.3242 180.722 13.7549 180.284 14.3428C179.847 14.9307 179.484 15.6895 179.197 16.6191C178.91 17.5352 178.767 18.6426 178.767 19.9414C178.767 21.377 178.896 22.6895 179.156 23.8789C179.43 25.0547 179.833 26.0596 180.366 26.8936C180.899 27.7275 181.562 28.377 182.355 28.8418C183.148 29.293 184.078 29.5186 185.145 29.5186C185.623 29.5186 186.074 29.4639 186.498 29.3545C186.936 29.2451 187.346 29.0947 187.729 28.9033C188.111 28.7119 188.474 28.4932 188.815 28.2471C189.171 27.9873 189.513 27.7139 189.841 27.4268L190.354 27.9189C190.039 28.3428 189.636 28.8076 189.144 29.3135C188.651 29.8193 188.057 30.2979 187.359 30.749C186.662 31.1865 185.849 31.5557 184.919 31.8564C183.989 32.1436 182.93 32.2871 181.74 32.2871C180.551 32.2871 179.389 32.0615 178.254 31.6104C177.133 31.1455 176.135 30.4756 175.26 29.6006C174.385 28.7256 173.681 27.666 173.147 26.4219C172.628 25.1641 172.368 23.7354 172.368 22.1357C172.368 20.8916 172.525 19.75 172.84 18.7109C173.154 17.6582 173.578 16.708 174.111 15.8604C174.658 15.0127 175.287 14.2676 175.998 13.625C176.723 12.9824 177.481 12.4492 178.274 12.0254C179.067 11.5879 179.874 11.2598 180.694 11.041C181.528 10.8223 182.328 10.7129 183.094 10.7129C184.105 10.7129 184.987 10.8291 185.739 11.0615C186.491 11.2939 187.113 11.6016 187.605 11.9844C188.111 12.3672 188.487 12.8115 188.733 13.3174C188.979 13.8096 189.103 14.3223 189.103 14.8555C189.103 15.252 189.048 15.6348 188.938 16.0039C188.843 16.3594 188.692 16.6738 188.487 16.9473C188.296 17.207 188.05 17.4189 187.749 17.583C187.448 17.7334 187.1 17.8086 186.703 17.8086Z" fill="#7C7FCA"/>
<path d="M199.767 12.4766V27.6318C199.767 28.3564 199.903 28.8623 200.177 29.1494C200.45 29.4229 200.826 29.5596 201.305 29.5596C201.674 29.5596 202.002 29.457 202.289 29.252C202.576 29.0469 202.822 28.8145 203.027 28.5547C203.273 28.2676 203.485 27.9326 203.663 27.5498L204.299 27.8369C204.094 28.2744 203.848 28.7529 203.561 29.2725C203.287 29.792 202.918 30.2773 202.453 30.7285C201.988 31.166 201.4 31.5352 200.689 31.8359C199.992 32.1367 199.11 32.2871 198.044 32.2871C197.442 32.2871 196.861 32.1982 196.301 32.0205C195.754 31.8428 195.262 31.5625 194.824 31.1797C194.4 30.7969 194.059 30.3184 193.799 29.7441C193.539 29.1699 193.409 28.4795 193.409 27.6729V12.4766H191.112V11C191.495 11 192.028 10.9043 192.712 10.7129C193.396 10.5078 194.093 10.1729 194.804 9.70801C195.528 9.24316 196.198 8.62109 196.813 7.8418C197.429 7.0625 197.866 6.09863 198.126 4.9502H199.767V11H203.109C204.203 11 204.75 10.8154 204.75 10.4463C204.75 10.3096 204.682 10.2207 204.545 10.1797C204.408 10.125 204.251 10.0635 204.073 9.99512C203.909 9.91309 203.759 9.80371 203.622 9.66699C203.485 9.53027 203.417 9.30469 203.417 8.99023C203.417 8.60742 203.533 8.30664 203.766 8.08789C204.012 7.86914 204.326 7.75977 204.709 7.75977C204.955 7.75977 205.167 7.81445 205.345 7.92383C205.536 8.01953 205.693 8.15625 205.816 8.33398C205.939 8.49805 206.028 8.68945 206.083 8.9082C206.151 9.12695 206.186 9.3457 206.186 9.56445C206.186 10.4531 205.926 11.1641 205.406 11.6973C204.9 12.2168 204.08 12.4766 202.945 12.4766H199.767Z" fill="#7C7FCA"/>
</svg>
